<svg width="194" height="199" viewBox="0 0 194 199" fill="none" xmlns="http://www.w3.org/2000/svg">
<path d="M106.919 25.849C106.091 25.9118 105.299 26.1596 104.588 26.5626L89.1705 35.404C86.5842 36.7907 85.6814 40.0263 87.1244 42.5518C88.5711 45.0959 91.8308 45.9427 94.332 44.4192L109.791 35.5963C114.7 32.9191 112.488 25.4422 106.919 25.849Z" fill="white"/>
<path d="M25.9634 72.1673C25.1531 72.2302 24.365 72.4742 23.6694 72.8958L8.21081 81.7187C5.65041 83.109 4.72171 86.3409 6.19061 88.8849C7.63731 91.4068 10.8896 92.2536 13.3982 90.7486L28.8346 81.9257C33.7482 79.2411 31.5504 71.7642 25.9634 72.1673Z" fill="white"/>
<path d="M30.9325 5.60738C26.9624 5.74419 24.5944 10.115 26.6553 13.5021L35.5723 28.8146C37.0227 31.3032 40.201 32.15 42.6874 30.7042C45.1886 29.2584 46.0174 26.0598 44.5707 23.5749L35.6685 8.28457C34.7065 6.5725 32.8787 5.55191 30.9325 5.60738Z" fill="white"/>
<path d="M73.2161 0.00519291C70.9406 0.123522 68.9981 1.69878 68.4357 3.89526L63.8107 21.0382C62.9634 23.83 64.621 26.7993 67.4515 27.5462C70.282 28.3154 73.1717 26.5848 73.8673 23.7375L78.4775 6.63161C79.458 3.20377 76.7792 -0.150114 73.2161 0.00519291Z" fill="white"/>
<path d="M5.0547 39.1943C-0.998499 39.3866 -1.9198 47.9803 3.9558 49.4446L21.1423 54.0039C23.9802 54.8914 26.9846 53.257 27.7542 50.3838C28.5275 47.5143 26.7145 44.5894 23.8211 43.9534L6.5939 39.4051C6.0944 39.2572 5.5727 39.1943 5.0547 39.1943Z" fill="white"/>
<path d="M56.1776 53.4085C59.8961 51.3674 63.9624 52.0995 65.62 55.1058L99.6896 116.848C102.542 122.683 111.215 117.909 107.804 112.399L101.58 101.132C97.3216 93.4111 110.716 86.8808 114.608 93.951L119.503 102.811C122.356 108.642 131.029 103.868 127.617 98.3587L124.994 93.6219C124.05 91.9098 124.113 89.6357 125.59 87.4429C127.077 85.2427 129.793 83.7451 132.453 83.649C135.091 83.5713 137.063 84.7472 137.985 86.4038L141.378 92.568C144.363 97.9779 152.492 93.4888 149.506 88.0752L148.211 85.7678C147.46 84.3959 147.039 83.0499 147.656 81.5449C148.522 79.5222 151.049 78.1171 153.243 78.0209C155.441 77.947 156.599 78.3722 157.772 80.4097C163.304 89.9611 173.767 109.378 173.767 109.378C182.481 125.304 185.467 139.456 182.94 151.244C180.42 163.033 172.498 173.065 159.123 180.401C145.769 187.719 136.405 189.686 127.81 188.707C119.229 187.716 111.16 183.715 102.79 177.229L54.2906 139.6C51.782 137.633 50.9014 135.518 54.6939 133.144C58.664 130.618 63.8884 133.144 67.6661 134.974C67.7845 135.052 89.3259 146.36 89.3259 146.36C93.3737 148.379 97.6509 143.982 95.4753 140.022L52.5923 62.2906C50.3575 58.2674 52.8661 55.2352 56.1776 53.4085ZM51.6895 45.2845C49.2401 46.6305 47.1237 48.5386 45.5216 50.9236C42.3063 55.6827 41.7439 61.7877 44.4819 66.7538L80.0759 131.213L74.5259 128.385C71.1515 126.458 63.326 123.149 58.5863 123.086C53.6764 123.108 49.3363 124.898 46.3319 127.616C41.5293 131.949 40.8596 136.435 43.7308 141.615C45.8694 145.487 49.5472 147.802 52.3814 149.994L97.1477 184.569C106.32 191.654 115.973 196.683 126.748 197.914C137.496 199.145 149.081 196.464 161.705 189.287C178.548 180.309 188.837 167.866 191.975 153.193C195.139 138.48 191.265 122.087 181.863 104.907L165.883 75.9428C163.363 71.3797 158.25 68.6804 153.033 69.1056C145.381 69.7194 141.622 72.8219 139.368 78.2724C135.617 74.5524 130.969 74.3232 126.074 75.9576C121.486 77.5217 119.215 80.369 116.976 83.8376C114.53 82.4916 111.678 81.8149 108.769 81.8962C103.279 82.07 98.2096 84.7657 94.9684 89.155L73.7156 50.6389C70.9776 45.6654 65.5053 42.8921 59.7629 43.0696C56.8917 43.1435 54.1352 43.9348 51.6895 45.2845Z" fill="white"/>
</svg>
