<svg width="242" height="306" viewBox="0 0 242 306" fill="none" xmlns="http://www.w3.org/2000/svg">
<path d="M109.919 25.849C109.091 25.9118 108.299 26.1596 107.588 26.5626L92.1705 35.404C89.5842 36.7907 88.6814 40.0263 90.1244 42.5518C91.5711 45.0959 94.8308 45.9427 97.332 44.4192L112.791 35.5963C117.7 32.9191 115.488 25.4422 109.919 25.849Z" fill="white"/>
<path d="M28.9634 72.1673C28.1531 72.2302 27.365 72.4742 26.6694 72.8958L11.2108 81.7187C8.65041 83.109 7.72171 86.3409 9.19061 88.8849C10.6373 91.4068 13.8896 92.2536 16.3982 90.7486L31.8346 81.9257C36.7482 79.2411 34.5504 71.7642 28.9634 72.1673Z" fill="white"/>
<path d="M33.9325 5.60738C29.9624 5.74419 27.5944 10.115 29.6553 13.5021L38.5723 28.8146C40.0227 31.3032 43.201 32.15 45.6874 30.7042C48.1886 29.2584 49.0174 26.0598 47.5707 23.5749L38.6685 8.28457C37.7065 6.5725 35.8787 5.55191 33.9325 5.60738Z" fill="white"/>
<path d="M76.2161 0.00519291C73.9406 0.123522 71.9981 1.69878 71.4357 3.89526L66.8107 21.0382C65.9634 23.83 67.621 26.7993 70.4515 27.5462C73.282 28.3154 76.1717 26.5848 76.8673 23.7375L81.4775 6.63161C82.458 3.20377 79.7792 -0.150114 76.2161 0.00519291Z" fill="white"/>
<path d="M8.0547 39.1943C2.0015 39.3866 1.0802 47.9803 6.9558 49.4446L24.1423 54.0039C26.9802 54.8914 29.9846 53.257 30.7542 50.3838C31.5275 47.5143 29.7145 44.5894 26.8211 43.9534L9.5939 39.4051C9.0944 39.2572 8.5727 39.1943 8.0547 39.1943Z" fill="white"/>
<path d="M59.1554 53.4085C62.8739 51.3674 66.9401 52.0995 68.5977 55.1058L102.667 116.848C105.52 122.683 114.193 117.909 110.781 112.399L104.558 101.132C100.299 93.4111 113.693 86.8808 117.586 93.951L122.481 102.811C125.334 108.642 134.006 103.868 130.595 98.3587L127.972 93.6219C127.028 91.9098 127.091 89.6357 128.567 87.4429C130.055 85.2427 132.771 83.7451 135.431 83.649C138.069 83.5713 140.041 84.7472 140.962 86.4038L144.355 92.568C147.341 97.9779 155.47 93.4888 152.484 88.0752L151.189 85.7678C150.438 84.3959 150.016 83.0499 150.634 81.5449C151.5 79.5222 154.027 78.1171 156.221 78.0209C158.419 77.947 159.577 78.3722 160.75 80.4097C166.281 89.9611 176.745 109.378 176.745 109.378C185.459 125.304 188.444 139.456 185.917 151.244C183.398 163.033 175.476 173.065 162.1 180.401C148.747 187.719 139.382 189.686 130.787 188.707C122.207 187.716 114.137 183.715 105.768 177.229L57.2683 139.6C54.7597 137.633 53.8792 135.518 57.6717 133.144C61.6418 130.618 66.8662 133.144 70.6439 134.974C70.7623 135.052 92.3037 146.36 92.3037 146.36C96.3515 148.379 100.629 143.982 98.453 140.022L55.57 62.2906C53.3352 58.2674 55.8439 55.2352 59.1554 53.4085ZM54.6673 45.2845C52.2179 46.6305 50.1015 48.5386 48.4994 50.9236C45.2841 55.6827 44.7217 61.7877 47.4597 66.7538L83.0537 131.213L77.5037 128.385C74.1293 126.458 66.3037 123.149 61.564 123.086C56.6541 123.108 52.3141 124.898 49.3097 127.616C44.5071 131.949 43.8373 136.435 46.7085 141.615C48.8471 145.487 52.525 147.802 55.3592 149.994L100.125 184.569C109.298 191.654 118.951 196.683 129.725 197.914C140.474 199.145 152.059 196.464 164.683 189.287C181.525 180.309 191.815 167.866 194.953 153.193C198.116 138.48 194.242 122.087 184.841 104.907L168.86 75.9428C166.341 71.3797 161.227 68.6804 156.01 69.1056C148.359 69.7194 144.599 72.8219 142.346 78.2724C138.594 74.5524 133.947 74.3232 129.052 75.9576C124.464 77.5217 122.192 80.369 119.954 83.8376C117.508 82.4916 114.655 81.8149 111.747 81.8962C106.256 82.07 101.187 84.7657 97.9461 89.155L76.6933 50.6389C73.9553 45.6654 68.483 42.8921 62.7406 43.0696C59.8694 43.1435 57.113 43.9348 54.6673 45.2845Z" fill="white"/>
<path d="M32.1612 251.532C28.1585 251.532 24.8525 250.202 22.2432 247.542C19.6339 244.882 18.3292 241.601 18.3292 237.7C18.3292 233.773 19.6339 230.493 22.2432 227.858C24.8525 225.198 28.1585 223.868 32.1612 223.868C34.5679 223.868 36.7845 224.438 38.8112 225.578C40.8632 226.693 42.4592 228.213 43.5992 230.138L39.0772 232.76C38.4185 231.569 37.4812 230.645 36.2652 229.986C35.0492 229.302 33.6812 228.96 32.1612 228.96C29.5772 228.96 27.4872 229.771 25.8912 231.392C24.3205 233.013 23.5352 235.116 23.5352 237.7C23.5352 240.259 24.3205 242.349 25.8912 243.97C27.4872 245.591 29.5772 246.402 32.1612 246.402C33.6812 246.402 35.0492 246.073 36.2652 245.414C37.5065 244.73 38.4439 243.805 39.0772 242.64L43.5992 245.262C42.4592 247.187 40.8759 248.72 38.8492 249.86C36.8225 250.975 34.5932 251.532 32.1612 251.532ZM46.8895 251V223.26H51.7915V251H46.8895ZM58.7101 229.72C57.8995 229.72 57.1901 229.429 56.5821 228.846C55.9995 228.238 55.7081 227.529 55.7081 226.718C55.7081 225.907 55.9995 225.198 56.5821 224.59C57.1901 223.982 57.8995 223.678 58.7101 223.678C59.5461 223.678 60.2555 223.982 60.8381 224.59C61.4461 225.198 61.7501 225.907 61.7501 226.718C61.7501 227.529 61.4461 228.238 60.8381 228.846C60.2555 229.429 59.5461 229.72 58.7101 229.72ZM56.2781 251V232H61.1801V251H56.2781ZM80.0688 232H84.9708V258.6H80.0688V248.758C78.6248 250.607 76.5728 251.532 73.9128 251.532C71.3541 251.532 69.1628 250.569 67.3388 248.644C65.5401 246.693 64.6408 244.312 64.6408 241.5C64.6408 238.688 65.5401 236.319 67.3388 234.394C69.1628 232.443 71.3541 231.468 73.9128 231.468C76.5728 231.468 78.6248 232.393 80.0688 234.242V232ZM71.0248 245.376C72.0381 246.364 73.3048 246.858 74.8248 246.858C76.3448 246.858 77.5988 246.364 78.5868 245.376C79.5748 244.363 80.0688 243.071 80.0688 241.5C80.0688 239.929 79.5748 238.65 78.5868 237.662C77.5988 236.649 76.3448 236.142 74.8248 236.142C73.3048 236.142 72.0381 236.649 71.0248 237.662C70.0368 238.65 69.5428 239.929 69.5428 241.5C69.5428 243.071 70.0368 244.363 71.0248 245.376ZM101.994 232H106.896V251H101.994V248.872C100.803 250.645 98.9159 251.532 96.3319 251.532C94.2546 251.532 92.5319 250.835 91.1639 249.442C89.8212 248.049 89.1499 246.123 89.1499 243.666V232H94.0519V243.058C94.0519 244.325 94.3939 245.3 95.0779 245.984C95.7619 246.643 96.6739 246.972 97.8139 246.972C99.0806 246.972 100.094 246.579 100.854 245.794C101.614 245.009 101.994 243.831 101.994 242.26V232ZM115.528 243.514C116.186 245.895 117.972 247.086 120.886 247.086C122.76 247.086 124.179 246.453 125.142 245.186L129.094 247.466C127.219 250.177 124.458 251.532 120.81 251.532C117.668 251.532 115.148 250.582 113.248 248.682C111.348 246.782 110.398 244.388 110.398 241.5C110.398 238.637 111.335 236.256 113.21 234.356C115.084 232.431 117.491 231.468 120.43 231.468C123.216 231.468 125.509 232.431 127.308 234.356C129.132 236.281 130.044 238.663 130.044 241.5C130.044 242.133 129.98 242.805 129.854 243.514H115.528ZM115.452 239.714H125.142C124.863 238.422 124.28 237.459 123.394 236.826C122.532 236.193 121.544 235.876 120.43 235.876C119.112 235.876 118.023 236.218 117.162 236.902C116.3 237.561 115.73 238.498 115.452 239.714ZM154.024 231.468C156.582 231.468 158.761 232.443 160.56 234.394C162.384 236.319 163.296 238.688 163.296 241.5C163.296 244.312 162.384 246.693 160.56 248.644C158.761 250.569 156.582 251.532 154.024 251.532C151.364 251.532 149.312 250.607 147.868 248.758V258.6H142.966V232H147.868V234.242C149.312 232.393 151.364 231.468 154.024 231.468ZM149.35 245.376C150.338 246.364 151.592 246.858 153.112 246.858C154.632 246.858 155.886 246.364 156.874 245.376C157.887 244.363 158.394 243.071 158.394 241.5C158.394 239.929 157.887 238.65 156.874 237.662C155.886 236.649 154.632 236.142 153.112 236.142C151.592 236.142 150.338 236.649 149.35 237.662C148.362 238.65 147.868 239.929 147.868 241.5C147.868 243.071 148.362 244.363 149.35 245.376ZM181.193 232H186.095V251H181.193V248.758C179.723 250.607 177.659 251.532 174.999 251.532C172.465 251.532 170.287 250.569 168.463 248.644C166.664 246.693 165.765 244.312 165.765 241.5C165.765 238.688 166.664 236.319 168.463 234.394C170.287 232.443 172.465 231.468 174.999 231.468C177.659 231.468 179.723 232.393 181.193 234.242V232ZM172.149 245.376C173.137 246.364 174.391 246.858 175.911 246.858C177.431 246.858 178.685 246.364 179.673 245.376C180.686 244.363 181.193 243.071 181.193 241.5C181.193 239.929 180.686 238.65 179.673 237.662C178.685 236.649 177.431 236.142 175.911 236.142C174.391 236.142 173.137 236.649 172.149 237.662C171.161 238.65 170.667 239.929 170.667 241.5C170.667 243.071 171.161 244.363 172.149 245.376ZM195.442 235.268C195.898 234.052 196.645 233.14 197.684 232.532C198.748 231.924 199.926 231.62 201.218 231.62V237.092C199.723 236.915 198.381 237.219 197.19 238.004C196.025 238.789 195.442 240.094 195.442 241.918V251H190.54V232H195.442V235.268ZM217.82 232H222.722V251H217.82V248.758C216.35 250.607 214.286 251.532 211.626 251.532C209.092 251.532 206.914 250.569 205.09 248.644C203.291 246.693 202.392 244.312 202.392 241.5C202.392 238.688 203.291 236.319 205.09 234.394C206.914 232.443 209.092 231.468 211.626 231.468C214.286 231.468 216.35 232.393 217.82 234.242V232ZM208.776 245.376C209.764 246.364 211.018 246.858 212.538 246.858C214.058 246.858 215.312 246.364 216.3 245.376C217.313 244.363 217.82 243.071 217.82 241.5C217.82 239.929 217.313 238.65 216.3 237.662C215.312 236.649 214.058 236.142 212.538 236.142C211.018 236.142 209.764 236.649 208.776 237.662C207.788 238.65 207.294 239.929 207.294 241.5C207.294 243.071 207.788 244.363 208.776 245.376ZM37.7641 282.268C38.2201 281.052 38.9675 280.14 40.0061 279.532C41.0701 278.924 42.2481 278.62 43.5401 278.62V284.092C42.0455 283.915 40.7028 284.219 39.5121 285.004C38.3468 285.789 37.7641 287.094 37.7641 288.918V298H32.8621V279H37.7641V282.268ZM49.844 290.514C50.5026 292.895 52.2886 294.086 55.202 294.086C57.0766 294.086 58.4953 293.453 59.458 292.186L63.41 294.466C61.5353 297.177 58.774 298.532 55.126 298.532C51.9846 298.532 49.464 297.582 47.564 295.682C45.664 293.782 44.714 291.388 44.714 288.5C44.714 285.637 45.6513 283.256 47.526 281.356C49.4006 279.431 51.8073 278.468 54.746 278.468C57.5326 278.468 59.8253 279.431 61.624 281.356C63.448 283.281 64.36 285.663 64.36 288.5C64.36 289.133 64.2966 289.805 64.17 290.514H49.844ZM49.768 286.714H59.458C59.1793 285.422 58.5966 284.459 57.71 283.826C56.8486 283.193 55.8606 282.876 54.746 282.876C53.4286 282.876 52.3393 283.218 51.478 283.902C50.6166 284.561 50.0466 285.498 49.768 286.714ZM78.84 278.468C81.3987 278.468 83.5774 279.443 85.376 281.394C87.2 283.319 88.112 285.688 88.112 288.5C88.112 291.312 87.2 293.693 85.376 295.644C83.5774 297.569 81.3987 298.532 78.84 298.532C76.18 298.532 74.128 297.607 72.684 295.758V305.6H67.782V279H72.684V281.242C74.128 279.393 76.18 278.468 78.84 278.468ZM74.166 292.376C75.154 293.364 76.408 293.858 77.928 293.858C79.448 293.858 80.702 293.364 81.69 292.376C82.7034 291.363 83.21 290.071 83.21 288.5C83.21 286.929 82.7034 285.65 81.69 284.662C80.702 283.649 79.448 283.142 77.928 283.142C76.408 283.142 75.154 283.649 74.166 284.662C73.178 285.65 72.684 286.929 72.684 288.5C72.684 290.071 73.178 291.363 74.166 292.376ZM96.4711 282.268C96.9271 281.052 97.6745 280.14 98.7131 279.532C99.7771 278.924 100.955 278.62 102.247 278.62V284.092C100.752 283.915 99.4098 284.219 98.2191 285.004C97.0538 285.789 96.4711 287.094 96.4711 288.918V298H91.5691V279H96.4711V282.268ZM120.597 295.644C118.646 297.569 116.265 298.532 113.453 298.532C110.641 298.532 108.26 297.569 106.309 295.644C104.384 293.693 103.421 291.312 103.421 288.5C103.421 285.688 104.384 283.319 106.309 281.394C108.26 279.443 110.641 278.468 113.453 278.468C116.265 278.468 118.646 279.443 120.597 281.394C122.548 283.319 123.523 285.688 123.523 288.5C123.523 291.312 122.548 293.693 120.597 295.644ZM109.767 292.262C110.755 293.25 111.984 293.744 113.453 293.744C114.922 293.744 116.151 293.25 117.139 292.262C118.127 291.274 118.621 290.02 118.621 288.5C118.621 286.98 118.127 285.726 117.139 284.738C116.151 283.75 114.922 283.256 113.453 283.256C111.984 283.256 110.755 283.75 109.767 284.738C108.804 285.726 108.323 286.98 108.323 288.5C108.323 290.02 108.804 291.274 109.767 292.262ZM141.373 271.4H146.275V298H141.373V295.758C139.929 297.607 137.877 298.532 135.217 298.532C132.659 298.532 130.467 297.569 128.643 295.644C126.845 293.693 125.945 291.312 125.945 288.5C125.945 285.688 126.845 283.319 128.643 281.394C130.467 279.443 132.659 278.468 135.217 278.468C137.877 278.468 139.929 279.393 141.373 281.242V271.4ZM132.329 292.376C133.343 293.364 134.609 293.858 136.129 293.858C137.649 293.858 138.903 293.364 139.891 292.376C140.879 291.363 141.373 290.071 141.373 288.5C141.373 286.929 140.879 285.65 139.891 284.662C138.903 283.649 137.649 283.142 136.129 283.142C134.609 283.142 133.343 283.649 132.329 284.662C131.341 285.65 130.847 286.929 130.847 288.5C130.847 290.071 131.341 291.363 132.329 292.376ZM163.299 279H168.201V298H163.299V295.872C162.108 297.645 160.221 298.532 157.637 298.532C155.559 298.532 153.837 297.835 152.469 296.442C151.126 295.049 150.455 293.123 150.455 290.666V279H155.357V290.058C155.357 291.325 155.699 292.3 156.383 292.984C157.067 293.643 157.979 293.972 159.119 293.972C160.385 293.972 161.399 293.579 162.159 292.794C162.919 292.009 163.299 290.831 163.299 289.26V279ZM178.656 293.402H187.092V298H172.082V294.732L180.1 283.598H172.462V279H186.712V282.268L178.656 293.402ZM193.12 276.72C192.31 276.72 191.6 276.429 190.992 275.846C190.41 275.238 190.118 274.529 190.118 273.718C190.118 272.907 190.41 272.198 190.992 271.59C191.6 270.982 192.31 270.678 193.12 270.678C193.956 270.678 194.666 270.982 195.248 271.59C195.856 272.198 196.16 272.907 196.16 273.718C196.16 274.529 195.856 275.238 195.248 275.846C194.666 276.429 193.956 276.72 193.12 276.72ZM190.688 298V279H195.59V298H190.688ZM204.979 282.268C205.435 281.052 206.182 280.14 207.221 279.532C208.285 278.924 209.463 278.62 210.755 278.62V284.092C209.26 283.915 207.918 284.219 206.727 285.004C205.562 285.789 204.979 287.094 204.979 288.918V298H200.077V279H204.979V282.268Z" fill="white"/>
</svg>
