<svg width="105" height="12" viewBox="0 0 105 12" fill="none" xmlns="http://www.w3.org/2000/svg">
<path d="M3.25 2.91C2.46333 2.83667 2.07 3.16667 2.07 3.9V4H3.25V5.04H2.07V9H0.99V5.04H0.23V4H0.99V3.9C0.99 3.21333 1.18 2.69333 1.56 2.34C1.94667 1.98 2.51 1.82333 3.25 1.87V2.91ZM4.49758 6.96C4.57758 7.34 4.76091 7.63333 5.04758 7.84C5.33424 8.04 5.68424 8.14 6.09758 8.14C6.67091 8.14 7.10091 7.93333 7.38758 7.52L8.27758 8.04C7.78425 8.76667 7.05424 9.13 6.08758 9.13C5.27424 9.13 4.61758 8.88333 4.11758 8.39C3.61758 7.89 3.36758 7.26 3.36758 6.5C3.36758 5.75333 3.61424 5.13 4.10758 4.63C4.60091 4.12333 5.23424 3.87 6.00758 3.87C6.74091 3.87 7.34091 4.12667 7.80758 4.64C8.28091 5.15333 8.51758 5.77667 8.51758 6.51C8.51758 6.62333 8.50424 6.77333 8.47758 6.96H4.49758ZM4.48758 6.08H7.42758C7.35424 5.67333 7.18424 5.36667 6.91758 5.16C6.65758 4.95333 6.35091 4.85 5.99758 4.85C5.59758 4.85 5.26424 4.96 4.99758 5.18C4.73091 5.4 4.56091 5.7 4.48758 6.08ZM10.4879 3.05C10.3546 3.18333 10.1946 3.25 10.0079 3.25C9.82122 3.25 9.65789 3.18333 9.51789 3.05C9.38456 2.91 9.31789 2.74667 9.31789 2.56C9.31789 2.37333 9.38456 2.21333 9.51789 2.08C9.65122 1.94 9.81456 1.87 10.0079 1.87C10.2012 1.87 10.3646 1.94 10.4979 2.08C10.6312 2.21333 10.6979 2.37333 10.6979 2.56C10.6979 2.74667 10.6279 2.91 10.4879 3.05ZM9.46789 9V4H10.5479V9H9.46789ZM14.5919 5.04H13.3519V7.44C13.3519 7.64667 13.3985 7.79667 13.4919 7.89C13.5852 7.97667 13.7219 8.02667 13.9019 8.04C14.0885 8.04667 14.3185 8.04333 14.5919 8.03V9C13.7652 9.1 13.1719 9.03 12.8119 8.79C12.4519 8.54333 12.2719 8.09333 12.2719 7.44V5.04H11.3519V4H12.2719V2.92L13.3519 2.6V4H14.5919V5.04ZM17.7263 9.13C16.993 9.13 16.3697 8.87667 15.8563 8.37C15.343 7.86333 15.0863 7.24 15.0863 6.5C15.0863 5.76 15.343 5.13667 15.8563 4.63C16.3697 4.12333 16.993 3.87 17.7263 3.87C18.4663 3.87 19.0897 4.12333 19.5963 4.63C20.1097 5.13667 20.3663 5.76 20.3663 6.5C20.3663 7.24 20.1097 7.86333 19.5963 8.37C19.0897 8.87667 18.4663 9.13 17.7263 9.13ZM16.6163 7.63C16.9163 7.93 17.2863 8.08 17.7263 8.08C18.1663 8.08 18.5363 7.93 18.8363 7.63C19.1363 7.33 19.2863 6.95333 19.2863 6.5C19.2863 6.04667 19.1363 5.67 18.8363 5.37C18.5363 5.07 18.1663 4.92 17.7263 4.92C17.2863 4.92 16.9163 5.07 16.6163 5.37C16.3163 5.67 16.1663 6.04667 16.1663 6.5C16.1663 6.95333 16.3163 7.33 16.6163 7.63ZM26.6729 3.87C27.3596 3.87 27.9462 4.12667 28.4329 4.64C28.9196 5.14667 29.1629 5.76667 29.1629 6.5C29.1629 7.24 28.9196 7.86333 28.4329 8.37C27.9462 8.87667 27.3596 9.13 26.6729 9.13C25.9129 9.13 25.3296 8.85 24.9229 8.29V11H23.8429V4H24.9229V4.72C25.3296 4.15333 25.9129 3.87 26.6729 3.87ZM25.3729 7.65C25.6729 7.95 26.0496 8.1 26.5029 8.1C26.9562 8.1 27.3329 7.95 27.6329 7.65C27.9329 7.34333 28.0829 6.96 28.0829 6.5C28.0829 6.04 27.9329 5.66 27.6329 5.36C27.3329 5.05333 26.9562 4.9 26.5029 4.9C26.0496 4.9 25.6729 5.05333 25.3729 5.36C25.0729 5.66 24.9229 6.04 24.9229 6.5C24.9229 6.96 25.0729 7.34333 25.3729 7.65ZM32.5017 9.13C31.7684 9.13 31.1451 8.87667 30.6317 8.37C30.1184 7.86333 29.8617 7.24 29.8617 6.5C29.8617 5.76 30.1184 5.13667 30.6317 4.63C31.1451 4.12333 31.7684 3.87 32.5017 3.87C33.2417 3.87 33.8651 4.12333 34.3717 4.63C34.8851 5.13667 35.1417 5.76 35.1417 6.5C35.1417 7.24 34.8851 7.86333 34.3717 8.37C33.8651 8.87667 33.2417 9.13 32.5017 9.13ZM31.3917 7.63C31.6917 7.93 32.0617 8.08 32.5017 8.08C32.9417 8.08 33.3117 7.93 33.6117 7.63C33.9117 7.33 34.0617 6.95333 34.0617 6.5C34.0617 6.04667 33.9117 5.67 33.6117 5.37C33.3117 5.07 32.9417 4.92 32.5017 4.92C32.0617 4.92 31.6917 5.07 31.3917 5.37C31.0917 5.67 30.9417 6.04667 30.9417 6.5C30.9417 6.95333 31.0917 7.33 31.3917 7.63ZM37.1983 4.84C37.4716 4.22 37.9849 3.91 38.7383 3.91V5.08C38.3249 5.05333 37.9649 5.15333 37.6583 5.38C37.3516 5.6 37.1983 5.96667 37.1983 6.48V9H36.1183V4H37.1983V4.84Z" fill="white"/>
<path d="M70.0646 8.92897C70.1588 9.12297 70.172 9.34643 70.1015 9.5502C70.0309 9.75397 69.8822 9.92135 69.6882 10.0155C69.5922 10.0622 69.4879 10.0894 69.3813 10.0957C69.2747 10.1021 69.1679 10.0873 69.067 10.0524C68.8632 9.98178 68.6958 9.83314 68.6017 9.63914L66.1587 4.56649L63.6599 9.61377C63.5644 9.80683 63.3961 9.95404 63.192 10.023C62.988 10.092 62.7649 10.0771 62.5718 9.98154C62.3787 9.88602 62.2315 9.71772 62.1626 9.51367C62.0936 9.30961 62.1085 9.08652 62.204 8.89346L65.4404 2.35177C65.508 2.21662 65.612 2.10303 65.7407 2.0238C65.8694 1.94458 66.0177 1.90286 66.1688 1.90334V1.90334C66.321 1.90407 66.4698 1.94755 66.5984 2.02881C66.7271 2.11007 66.8303 2.22584 66.8962 2.36293L70.0646 8.92897ZM99.3582 2.1519C99.2821 2.07504 99.1916 2.01401 99.0918 1.97236C98.992 1.93071 98.885 1.90927 98.7768 1.90927C98.6687 1.90927 98.5617 1.93071 98.4619 1.97236C98.3621 2.01401 98.2716 2.07504 98.1955 2.1519C98.1178 2.22711 98.0562 2.31734 98.0146 2.41711C97.9729 2.51688 97.9519 2.62409 97.953 2.73222V7.28035L92.8307 2.1519C92.7192 2.03155 92.5725 1.94955 92.4116 1.91766C92.2507 1.88577 92.0838 1.90562 91.9348 1.97436C91.7811 2.03099 91.6493 2.1348 91.5582 2.27093C91.467 2.40706 91.4213 2.56853 91.4276 2.73222V9.27086C91.4286 9.48902 91.5158 9.69794 91.67 9.8522C91.8243 10.0065 92.0332 10.0936 92.2514 10.0947C92.3593 10.0947 92.4661 10.0733 92.5657 10.0318C92.6653 9.99037 92.7557 9.92959 92.8318 9.85301C92.9078 9.77643 92.9679 9.68557 93.0086 9.58566C93.0493 9.48574 93.0699 9.37876 93.0691 9.27086V4.71867L98.1975 9.85219C98.2729 9.92996 98.3633 9.99157 98.4632 10.0333C98.5632 10.0749 98.6706 10.0958 98.7789 10.0947C98.8873 10.0967 98.9949 10.0763 99.095 10.0345C99.1951 9.99278 99.2854 9.93069 99.3602 9.85219C99.4379 9.7768 99.4995 9.68638 99.5412 9.58645C99.5829 9.48651 99.6038 9.37914 99.6027 9.27086V2.73222C99.6035 2.62395 99.5822 2.51665 99.5402 2.41687C99.4982 2.31709 99.4362 2.22693 99.3582 2.1519V2.1519ZM88.5879 3.10353C88.2078 2.72303 87.7565 2.42118 87.2596 2.21523C86.7628 2.00929 86.2303 1.90328 85.6924 1.90328C85.1546 1.90328 84.6221 2.00929 84.1253 2.21523C83.6284 2.42118 83.1771 2.72303 82.797 3.10353C82.4104 3.47953 82.1046 3.93041 81.8983 4.4286C81.6919 4.9268 81.5893 5.46184 81.5968 6.00103C81.5895 6.53945 81.6922 7.07369 81.8985 7.57104C82.1049 8.06838 82.4106 8.51838 82.797 8.89346C83.1769 9.2742 83.6282 9.57627 84.1251 9.78237C84.6219 9.98847 85.1545 10.0946 85.6924 10.0946C86.2303 10.0946 86.763 9.98847 87.2598 9.78237C87.7566 9.57627 88.208 9.2742 88.5879 8.89346C88.9743 8.51838 89.28 8.06838 89.4863 7.57104C89.6927 7.07369 89.7954 6.53945 89.7881 6.00103C89.7955 5.46184 89.693 4.9268 89.4866 4.4286C89.2802 3.93041 88.9744 3.47953 88.5879 3.10353V3.10353ZM87.4253 7.73081C87.0832 8.07326 86.6474 8.30669 86.1728 8.40162C85.6982 8.49655 85.2061 8.44873 84.7587 8.2642C84.3112 8.07966 83.9285 7.76669 83.6588 7.36479C83.3891 6.9629 83.2446 6.4901 83.2434 6.0061C83.2392 5.68352 83.3005 5.36343 83.4236 5.06523C83.5467 4.76703 83.7291 4.49692 83.9596 4.27126C84.3021 3.92805 84.7388 3.69428 85.2144 3.59959C85.6899 3.5049 86.1829 3.55355 86.6307 3.73939C87.0785 3.92522 87.4611 4.23986 87.7299 4.64341C87.9987 5.04696 88.1416 5.52123 88.1405 6.0061C88.144 6.32699 88.0824 6.64526 87.9595 6.94169C87.8365 7.23812 87.6548 7.50656 87.4253 7.73081V7.73081ZM79.1406 3.54993C79.2497 3.55152 79.358 3.53063 79.4587 3.48856C79.5594 3.4465 79.6504 3.38416 79.726 3.30543C79.8017 3.22957 79.8614 3.13931 79.9017 3.03999C79.9419 2.94067 79.9619 2.8343 79.9603 2.72714C79.9618 2.61955 79.9418 2.51274 79.9015 2.41294C79.8613 2.31315 79.8016 2.22234 79.726 2.14582C79.6503 2.06735 79.5593 2.00532 79.4586 1.96361C79.3578 1.92189 79.2496 1.90137 79.1406 1.90334H72.607C72.4988 1.90128 72.3913 1.92177 72.2914 1.96351C72.1915 2.00526 72.1013 2.06734 72.0267 2.14582C71.9488 2.22103 71.887 2.31141 71.8453 2.41139C71.8036 2.51137 71.7828 2.61883 71.7842 2.72714C71.7842 2.78925 71.791 2.85117 71.8045 2.91179C71.7911 2.97275 71.7843 3.03501 71.7842 3.09745V7.73892C71.7843 7.78514 71.788 7.83127 71.7954 7.8769C71.8594 8.48362 72.1449 9.04542 72.5974 9.45465C73.0499 9.86389 73.6374 10.0918 74.2475 10.0947H79.1406C79.2485 10.0947 79.3553 10.0733 79.4549 10.0318C79.5546 9.99037 79.645 9.92959 79.721 9.85301C79.797 9.77643 79.8571 9.68557 79.8978 9.58566C79.9386 9.48574 79.9591 9.37876 79.9583 9.27086C79.96 9.16341 79.9403 9.05669 79.9005 8.9569C79.8606 8.85711 79.8013 8.76623 79.726 8.68954C79.6506 8.61177 79.5602 8.55016 79.4603 8.50847C79.3603 8.46678 79.2529 8.44589 79.1447 8.44706H74.2475C74.0319 8.4468 73.8251 8.36137 73.6721 8.20936C73.5192 8.05735 73.4324 7.85108 73.4308 7.63544V6.82382H77.5762C77.7386 6.82506 77.8977 6.77792 78.0332 6.68841C78.1687 6.5989 78.2745 6.47107 78.337 6.32122C78.3996 6.17136 78.4161 6.00627 78.3845 5.84698C78.3529 5.68769 78.2746 5.54142 78.1596 5.42681C78.0847 5.34773 77.9941 5.28515 77.8937 5.24305C77.7932 5.20095 77.6851 5.18026 77.5762 5.18231H73.3872V3.55906L79.1406 3.54993ZM54.6164 10.0947H54.6265C55.0013 10.0946 55.3744 10.0434 55.7354 9.94248C55.849 9.909 55.9627 9.87045 56.0753 9.82885C56.2293 9.77023 56.3797 9.70248 56.5257 9.62595V9.62595L56.5582 9.60972L56.5805 9.59754L56.5927 9.59044C57.1567 9.28082 57.6404 8.84337 58.0049 8.31315L58.013 8.30097L58.0343 8.27155L58.0475 8.25126C58.4745 7.59995 58.7094 6.84154 58.7252 6.06292V5.97161C58.7252 5.94929 58.7252 5.92596 58.7252 5.90364V5.88538C58.7135 5.44945 58.6319 5.01822 58.4838 4.60808V4.60098C58.4838 4.59388 58.4838 4.58576 58.4756 4.57765C58.4675 4.56953 58.4625 4.54315 58.4564 4.52692C58.3076 4.14665 58.1024 3.79095 57.8476 3.47181C57.4968 3.04993 57.0765 2.69104 56.6048 2.41061C56.4494 2.32457 56.2884 2.24899 56.1229 2.18437C55.5802 1.99262 55.012 1.95306 54.2745 1.91856L54.1152 1.91146C53.9772 1.90334 53.89 1.90334 53.754 1.90334H53.4902H52.7263H51.655L52.4808 2.38322L52.497 2.39438L55.498 4.13531C55.7415 4.27423 55.954 4.46143 56.1225 4.68544C56.2911 4.90944 56.412 5.16553 56.478 5.43797C56.5254 5.64028 56.5411 5.84869 56.5247 6.05582C56.5204 6.38238 56.4271 6.70158 56.2548 6.97904C56.0927 7.24248 55.8701 7.46342 55.6054 7.62347C55.3407 7.78352 55.0416 7.87806 54.733 7.89922C54.3105 7.94563 53.8841 7.85645 53.5156 7.64457V7.64457L49.3834 5.2584C49.2348 5.17243 49.0661 5.12696 48.8944 5.12651C48.8081 5.12658 48.7222 5.13783 48.6388 5.15999C48.4515 5.21032 48.2833 5.31503 48.1555 5.46088C48.0278 5.60673 47.946 5.78718 47.9208 5.97944C47.8955 6.1717 47.9277 6.36714 48.0134 6.54108C48.0992 6.71502 48.2345 6.85966 48.4024 6.95672L53.1382 9.69595C53.5879 9.95503 54.0974 10.0924 54.6164 10.0947V10.0947ZM48.8579 1.90334C48.3188 1.90294 47.785 2.0095 47.2874 2.21683C46.3308 2.62762 45.559 3.3763 45.1194 4.31996C44.8861 4.83882 44.7637 5.4007 44.7602 5.96958V6.02944C44.7685 7.10527 45.2003 8.13451 45.9622 8.89413C46.7241 9.65374 47.7547 10.0825 48.8305 10.0876H48.8843C48.9857 10.0876 49.0872 10.0876 49.1886 10.0774C49.7781 10.0294 50.35 9.85355 50.8646 9.56203L47.8829 7.83733C47.5373 7.63811 47.2586 7.34084 47.0821 6.98315C46.9055 6.62545 46.839 6.22342 46.891 5.82792C46.9431 5.43243 47.1113 5.06127 47.3743 4.76141C47.6374 4.46155 47.9835 4.24648 48.3689 4.14343C48.54 4.09789 48.7163 4.0747 48.8934 4.07444C49.2471 4.07709 49.5939 4.17298 49.8988 4.35242L54.0239 6.73251C54.2486 6.85395 54.5117 6.88299 54.7575 6.81347C55.0032 6.74394 55.2121 6.58133 55.3399 6.36019C55.4676 6.13905 55.5041 5.87681 55.4416 5.6292C55.379 5.38159 55.2224 5.16813 55.0049 5.03419L50.2204 2.27162C49.8063 2.03169 49.3365 1.9047 48.8579 1.90334V1.90334ZM59.3076 8.37808C59.2672 8.40528 59.2188 8.41801 59.1703 8.41417C59.1218 8.41034 59.0761 8.39017 59.0405 8.35696C59.0049 8.32375 58.9817 8.27947 58.9745 8.23134C58.9674 8.18321 58.9768 8.13408 59.0012 8.09198C59.4247 7.47657 59.6515 6.74709 59.6515 6.00002C59.6515 5.25294 59.4247 4.52346 59.0012 3.90806C58.9709 3.86561 58.9572 3.81364 58.9624 3.7618C58.9676 3.70995 58.9914 3.66176 59.0295 3.62618C59.0675 3.5906 59.1172 3.57004 59.1693 3.56833C59.2214 3.56662 59.2723 3.58388 59.3126 3.61689C59.6737 3.90102 59.9662 4.26274 60.1686 4.67527C60.3709 5.0878 60.4778 5.54056 60.4814 6.00002C60.4778 6.45918 60.3708 6.91164 60.1685 7.32384C59.9662 7.73604 59.6737 8.0974 59.3126 8.38112L59.3076 8.37808ZM43 5.999C43.0036 5.53955 43.1105 5.08679 43.3128 4.67426C43.5151 4.26173 43.8077 3.9 44.1687 3.61587C44.2091 3.58286 44.26 3.56561 44.3121 3.56732C44.3641 3.56903 44.4138 3.58958 44.4519 3.62516C44.4899 3.66075 44.5138 3.70894 44.519 3.76078C44.5242 3.81263 44.5104 3.8646 44.4802 3.90704C44.0566 4.52245 43.8299 5.25193 43.8299 5.999C43.8299 6.74608 44.0566 7.47556 44.4802 8.09096C44.5096 8.13345 44.5227 8.18511 44.5172 8.23649C44.5116 8.28786 44.4878 8.33552 44.45 8.37074C44.4121 8.40597 44.3629 8.4264 44.3113 8.42831C44.2596 8.43021 44.209 8.41346 44.1687 8.38112C43.8076 8.0973 43.515 7.73577 43.3126 7.32339C43.1103 6.911 43.0034 6.45834 43 5.999V5.999ZM104.746 7.8627L101.9 6.45351C101.792 6.40078 101.669 6.39275 101.556 6.43119C101.499 6.44973 101.447 6.47941 101.403 6.51845C101.358 6.55749 101.322 6.6051 101.296 6.65845C101.27 6.71133 101.254 6.76888 101.25 6.8278C101.246 6.88671 101.254 6.94585 101.272 7.00181C101.291 7.05778 101.321 7.10948 101.36 7.15397C101.399 7.19846 101.446 7.23485 101.499 7.26108L103.519 8.26141L101.49 9.2384C101.413 9.27519 101.349 9.33277 101.304 9.40455C101.258 9.47632 101.234 9.55938 101.234 9.64421C101.234 9.71168 101.249 9.77829 101.279 9.839C101.316 9.91536 101.373 9.97982 101.445 10.025C101.517 10.0702 101.6 10.0944 101.684 10.0947C101.752 10.0943 101.818 10.079 101.879 10.05L104.737 8.67229C104.814 8.63545 104.878 8.57783 104.923 8.50605C104.968 8.43426 104.992 8.35123 104.992 8.26648V8.26648C104.993 8.18294 104.97 8.10081 104.927 8.02943C104.884 7.95805 104.821 7.90028 104.746 7.8627V7.8627ZM104.555 4.77142H102.12V3.20702C102.119 3.15138 102.131 3.09628 102.153 3.04526C102.175 2.99424 102.208 2.94843 102.249 2.91077C102.287 2.87083 102.334 2.83923 102.385 2.81794C102.436 2.79665 102.491 2.78612 102.547 2.787C102.602 2.78606 102.656 2.79648 102.707 2.81761C102.757 2.83874 102.803 2.87011 102.841 2.90976V2.90976C102.881 2.94759 102.913 2.99341 102.934 3.04426C102.956 3.09511 102.966 3.14986 102.965 3.20499V4.13531C102.965 4.24916 103.01 4.35839 103.09 4.43967V4.43967C103.13 4.48136 103.179 4.51443 103.233 4.53692C103.286 4.55941 103.344 4.57084 103.402 4.57054C103.46 4.57121 103.518 4.55995 103.572 4.53745C103.626 4.51494 103.675 4.48167 103.716 4.43967C103.798 4.35954 103.845 4.25017 103.847 4.13531V3.49413C103.847 3.30578 103.922 3.12514 104.055 2.99196C104.189 2.85878 104.369 2.78396 104.558 2.78396C104.616 2.7845 104.673 2.77328 104.727 2.75096C104.781 2.72864 104.829 2.6957 104.87 2.6541C104.912 2.61338 104.945 2.56459 104.967 2.5107C104.99 2.45681 105.001 2.39894 105 2.34061C105 2.28261 104.988 2.22527 104.965 2.17187C104.942 2.11847 104.91 2.07006 104.868 2.02943C104.827 1.9888 104.778 1.95674 104.724 1.93511C104.67 1.91347 104.613 1.90268 104.555 1.90334C104.16 1.89549 103.778 2.04098 103.489 2.30916C103.395 2.20974 103.287 2.12554 103.167 2.05958V2.05958C102.975 1.95621 102.761 1.90249 102.544 1.90334C102.372 1.90095 102.201 1.93363 102.043 1.9994C101.884 2.06516 101.74 2.16263 101.621 2.28582C101.497 2.40491 101.399 2.54806 101.332 2.70648C101.266 2.86489 101.232 3.03523 101.234 3.20702V5.21274C101.233 5.27102 101.244 5.32883 101.267 5.38258C101.29 5.43634 101.323 5.48489 101.365 5.52522C101.406 5.56763 101.455 5.60122 101.51 5.6239C101.564 5.64658 101.622 5.65788 101.681 5.65711H104.555C104.672 5.65684 104.784 5.61015 104.867 5.52725C104.95 5.44436 104.997 5.332 104.997 5.21477C104.997 5.15669 104.986 5.09916 104.964 5.04549C104.941 4.99182 104.909 4.94307 104.868 4.90205C104.826 4.86103 104.778 4.82855 104.724 4.80648C104.67 4.78441 104.613 4.77318 104.555 4.77345V4.77142Z" fill="#F8F8F8"/>
</svg>
