<svg width="899" height="315" viewBox="0 0 899 315" fill="none" xmlns="http://www.w3.org/2000/svg">
<g clip-path="url(#clip0_33_16)">
<path fill-rule="evenodd" clip-rule="evenodd" d="M134.971 0.998003C134.971 1.5469 134.071 1.99601 132.971 1.99601C131.871 1.99601 130.972 2.44511 130.972 2.99401C130.972 3.54291 130.072 3.99201 128.972 3.99201C127.872 3.99201 126.972 4.35728 126.972 4.80339C126.972 5.25049 125.398 6.23253 123.473 6.98602C121.549 7.73951 119.974 8.65368 119.974 9.01695C119.974 9.38023 118.174 10.487 115.975 11.477C113.775 12.4671 111.976 13.6577 111.976 14.1237C111.976 14.5888 111.076 14.97 109.976 14.97C108.876 14.97 107.977 15.4191 107.977 15.968C107.977 16.5169 107.302 16.966 106.477 16.966C105.652 16.966 104.977 17.4151 104.977 17.964C104.977 18.513 104.077 18.9621 102.978 18.9621C101.878 18.9621 100.978 19.4112 100.978 19.9601C100.978 20.509 100.078 20.9581 98.9785 20.9581C97.8788 20.9581 96.9739 21.2944 96.9679 21.7066C96.9619 22.1187 93.5877 24.2205 89.4696 26.3792C85.3515 28.5379 81.9822 30.6976 81.9822 31.1786C81.9822 31.6596 81.5683 31.7984 81.0634 31.487C80.5575 31.1746 79.4647 31.5978 78.6349 32.4261C77.8051 33.2545 76.4194 33.9321 75.5546 33.9321C74.6908 33.9321 73.9839 34.3812 73.9839 34.9301C73.9839 35.479 73.502 35.9281 72.9132 35.9281C71.7884 35.9281 68.985 38.3702 68.985 39.3503C68.985 39.6636 69.6599 39.9201 70.4847 39.9201C71.3095 39.9201 71.9844 40.3692 71.9844 40.9181C71.9844 41.467 72.8462 41.9161 73.9009 41.9161C74.9547 41.9161 75.9665 42.2604 76.1505 42.6806C76.5774 43.6606 88.8217 50.8981 90.0524 50.8981C90.5623 50.8981 90.9802 51.3472 90.9802 51.8961C90.9802 52.445 91.7811 52.8941 92.7589 52.8941C93.7376 52.8941 95.1863 53.7923 95.9792 54.8902C96.772 55.988 98.2207 56.8862 99.1995 56.8862C100.177 56.8862 100.978 57.3353 100.978 57.8842C100.978 58.4331 101.878 58.8822 102.978 58.8822C104.077 58.8822 104.977 59.2474 104.977 59.6935C104.977 60.1406 106.552 61.1227 108.476 61.8762C110.401 62.6297 111.976 63.6117 111.976 64.0588C111.976 64.5049 112.876 64.8702 113.975 64.8702C115.075 64.8702 115.975 65.2474 115.975 65.7075C115.975 66.1686 117.769 67.4031 119.963 68.452C122.155 69.5009 123.955 70.6127 123.962 70.9211C123.968 71.2305 125.548 72.1007 127.472 72.8542C129.397 73.6077 130.972 74.5897 130.972 75.0368C130.972 75.4829 131.871 75.8482 132.971 75.8482C134.071 75.8482 134.971 76.1047 134.971 76.4181C134.971 77.5897 132.058 79.8402 130.543 79.8402C129.679 79.8402 128.972 80.2384 128.972 80.7245C128.972 81.2105 127.509 82.3462 125.723 83.2474C121.632 85.3093 118.922 86.9939 117.261 88.5069C116.547 89.1576 115.066 89.9739 113.969 90.3212C112.873 90.6686 111.976 91.3711 111.976 91.8831C111.976 92.3951 111.076 92.8143 109.976 92.8143C108.876 92.8143 107.977 93.2634 107.977 93.8123C107.977 94.3612 107.077 94.8103 105.977 94.8103C104.877 94.8103 103.977 95.2594 103.977 95.8083C103.977 96.3572 103.303 96.8063 102.478 96.8063C101.653 96.8063 100.978 97.2554 100.978 97.8043C100.978 98.3532 100.078 98.8023 98.9785 98.8023C97.8788 98.8023 96.9749 99.1396 96.9709 99.5508C96.9659 99.962 93.5917 102.092 89.4726 104.283C85.3525 106.474 81.9822 108.607 81.9822 109.024C81.9822 109.44 81.1814 109.78 80.2036 109.78C79.2248 109.78 77.7761 110.679 76.9833 111.776C76.1904 112.874 74.7418 113.772 73.763 113.772C72.7852 113.772 71.9844 114.221 71.9844 114.77C71.9844 115.319 71.0846 115.768 69.9848 115.768C68.885 115.768 67.9852 116.134 67.9852 116.58C67.9852 117.027 66.4106 118.009 64.486 118.762C62.5614 119.516 60.9867 120.498 60.9867 120.945C60.9867 121.391 60.0869 121.756 58.9872 121.756C57.8874 121.756 56.9876 122.138 56.9876 122.603C56.9876 123.069 55.188 124.259 52.9885 125.249C50.7889 126.239 48.9893 127.34 48.9893 127.695C48.9893 128.051 47.4147 128.91 45.4901 129.605C43.5655 130.299 41.9909 131.287 41.9909 131.801C41.9909 132.314 41.091 132.734 39.9913 132.734C38.8915 132.734 37.9917 133.183 37.9917 133.732C37.9917 134.281 37.1909 134.73 36.2131 134.73C35.2343 134.73 33.7856 135.629 32.9928 136.726C32.2 137.824 30.8633 138.732 30.0224 138.744C29.1816 138.756 27.369 139.645 25.9943 140.718C24.6196 141.792 22.933 142.68 22.2451 142.692C21.5583 142.704 20.9954 143.096 20.9954 143.561C20.9954 144.027 19.1958 145.217 16.9963 146.207C14.7967 147.197 12.9971 148.388 12.9971 148.854C12.9971 149.319 12.1823 149.7 11.1865 149.7C10.1897 149.7 8.40912 150.599 7.22838 151.696C6.04864 152.794 4.38899 153.692 3.54118 153.692C2.66637 153.692 1.99951 154.556 1.99951 155.688C1.99951 156.786 2.41742 157.684 2.92731 157.684C4.15804 157.684 16.4024 164.922 16.8293 165.902C17.0133 166.322 18.025 166.666 19.0788 166.666C20.1336 166.666 20.9954 167.116 20.9954 167.664C20.9954 168.213 21.6703 168.662 22.4951 168.662C23.3199 168.662 23.9947 169.112 23.9947 169.66C23.9947 170.209 24.8946 170.658 25.9943 170.658C27.0941 170.658 27.9939 171.108 27.9939 171.656C27.9939 172.205 28.8937 172.654 29.9935 172.654C31.0932 172.654 31.993 173.049 31.993 173.532C31.993 174.014 33.3427 174.967 34.9924 175.648C36.642 176.33 37.9917 177.173 37.9917 177.522C37.9917 177.87 39.4544 178.801 41.241 179.59C45.735 181.574 56.4157 187.926 56.8206 188.856C57.0046 189.276 58.0164 189.621 59.0702 189.621C60.1249 189.621 60.9867 190.07 60.9867 190.619C60.9867 191.167 61.8865 191.617 62.9863 191.617C64.0861 191.617 64.9859 192.066 64.9859 192.615C64.9859 193.163 65.6607 193.613 66.4855 193.613C67.7923 193.613 67.9852 198.555 67.9852 232.102C67.9852 254.832 68.3791 271.324 68.947 272.384C69.4759 273.37 71.2755 274.742 72.9461 275.433C74.6168 276.123 75.9835 276.976 75.9835 277.327C75.9835 277.677 78.9079 279.493 82.4821 281.361C86.0563 283.228 88.9807 285.132 88.9807 285.591C88.9807 286.051 89.8805 286.427 90.9802 286.427C92.08 286.427 92.9798 286.876 92.9798 287.425C92.9798 287.974 93.8796 288.423 94.9794 288.423C96.0791 288.423 96.9789 288.872 96.9789 289.421C96.9789 289.97 97.8788 290.419 98.9785 290.419C100.078 290.419 100.978 290.813 100.978 291.294C100.978 291.776 103.452 293.46 106.475 295.037C109.497 296.613 111.972 298.24 111.974 298.652C111.975 299.065 112.876 299.401 113.975 299.401C115.075 299.401 115.975 299.767 115.975 300.213C115.975 301.235 123.675 305.389 125.568 305.389C126.341 305.389 126.972 305.838 126.972 306.387C126.972 306.936 127.647 307.385 128.472 307.385C129.297 307.385 129.972 307.834 129.972 308.383C129.972 308.932 130.647 309.381 131.471 309.381C132.296 309.381 132.971 309.83 132.971 310.379C132.971 310.928 133.871 311.377 134.971 311.377C136.935 311.377 136.97 310.711 136.97 273.453C136.97 247.676 137.306 235.529 138.018 235.529C138.594 235.529 141.527 237.101 144.536 239.022C147.545 240.943 150.447 242.515 150.986 242.515C151.526 242.515 151.967 242.964 151.967 243.513C151.967 244.062 152.867 244.511 153.967 244.511C155.066 244.511 155.966 244.96 155.966 245.509C155.966 246.058 156.866 246.507 157.966 246.507C159.066 246.507 159.965 246.956 159.965 247.505C159.965 248.054 160.64 248.503 161.465 248.503C162.29 248.503 162.965 248.952 162.965 249.501C162.965 250.05 163.864 250.499 164.964 250.499C166.064 250.499 166.964 250.948 166.964 251.497C166.964 252.046 167.945 252.495 169.142 252.495C170.34 252.495 172.834 253.041 174.681 253.707C177.319 254.659 178.46 254.659 179.988 253.707C181.058 253.041 183.262 252.495 184.887 252.495C186.512 252.495 188.119 252.046 188.459 251.497C188.799 250.948 190.076 250.499 191.297 250.499C192.517 250.499 194.165 249.6 194.958 248.503C195.751 247.405 197.199 246.507 198.178 246.507C199.156 246.507 199.957 246.058 199.957 245.509C199.957 244.96 200.45 244.511 201.052 244.511C201.654 244.511 203.342 243.683 204.802 242.672C206.261 241.66 209.929 239.531 212.954 237.939C215.978 236.347 218.678 234.781 218.953 234.459C219.227 234.135 220.915 233.236 222.702 232.461C224.488 231.684 225.951 230.71 225.951 230.295C225.951 229.88 226.851 229.541 227.951 229.541C229.05 229.541 229.95 229.146 229.95 228.663C229.95 228.181 231.413 227.196 233.199 226.475C234.986 225.753 236.674 224.913 236.949 224.608C237.776 223.687 245.32 219.473 247.196 218.881C248.159 218.578 248.946 217.933 248.946 217.448C248.946 216.964 249.846 216.567 250.946 216.567C252.045 216.567 252.945 216.201 252.945 215.755C252.945 215.308 254.52 214.326 256.444 213.573C258.369 212.819 259.944 211.837 259.944 211.39C259.944 210.944 260.429 210.579 261.02 210.579C262.419 210.579 267.942 205.066 267.942 203.669C267.942 203.079 268.392 202.595 268.942 202.595C269.492 202.595 269.941 201.472 269.941 200.1C269.941 198.727 270.391 197.605 270.941 197.605C271.595 197.605 271.941 179.474 271.941 145.209C271.941 110.945 271.595 92.8143 270.941 92.8143C270.391 92.8143 269.941 91.467 269.941 89.8202C269.941 88.1735 269.492 86.8262 268.942 86.8262C268.392 86.8262 267.942 85.7035 267.942 84.3312C267.942 82.959 267.522 81.8362 267.009 81.8362C266.496 81.8362 265.787 80.9241 265.432 79.8083C264.757 77.6815 262.425 75.1935 256.809 70.6037C254.959 69.0917 252.379 66.972 251.077 65.8931C249.774 64.8143 247.862 63.6636 246.827 63.3353C245.794 63.0079 244.947 62.3213 244.947 61.8093C244.947 61.2973 244.047 60.8782 242.947 60.8782C241.848 60.8782 240.948 60.4291 240.948 59.8802C240.948 59.3313 240.273 58.8822 239.448 58.8822C238.623 58.8822 237.948 58.4331 237.948 57.8842C237.948 57.3353 237.049 56.8862 235.949 56.8862C234.849 56.8862 233.949 56.4371 233.949 55.8882C233.949 55.3393 233.049 54.8902 231.95 54.8902C230.85 54.8902 229.95 54.4411 229.95 53.8921C229.95 53.3432 229.49 52.8941 228.929 52.8941C227.716 52.8941 219.598 47.7335 219.12 46.6566C218.936 46.2445 217.924 45.9081 216.87 45.9081C215.815 45.9081 214.953 45.488 214.953 44.975C214.953 44.461 213.379 43.473 211.454 42.7784C209.53 42.0838 207.955 41.1566 207.955 40.7175C207.955 40.2794 207.28 39.9201 206.455 39.9201C205.63 39.9201 204.956 39.471 204.956 38.9221C204.956 38.3732 204.056 37.9241 202.956 37.9241C201.856 37.9241 200.956 37.475 200.956 36.9261C200.956 36.3772 200.282 35.9281 199.457 35.9281C198.632 35.9281 197.957 35.479 197.957 34.9301C197.957 34.3812 197.057 33.9321 195.958 33.9321C194.858 33.9321 193.958 33.5509 193.958 33.0858C193.958 32.6197 192.158 31.4291 189.959 30.4391C187.759 29.4491 185.96 28.3423 185.96 27.979C185.96 27.6157 184.385 26.7016 182.46 25.9481C180.536 25.1946 178.961 24.2125 178.961 23.7654C178.961 23.3193 178.061 22.9541 176.962 22.9541C175.862 22.9541 174.962 22.505 174.962 21.9561C174.962 21.4072 174.062 20.9581 172.962 20.9581C171.863 20.9581 170.963 20.509 170.963 19.9601C170.963 19.4112 170.288 18.9621 169.463 18.9621C168.638 18.9621 167.964 18.513 167.964 17.964C167.964 17.4151 167.037 16.966 165.905 16.966C164.773 16.966 164.077 16.5928 164.36 16.1367C164.642 15.6806 163.32 14.6986 161.42 13.9541C159.52 13.2106 157.966 12.3333 157.966 12.005C157.966 11.6776 155.273 10.0768 151.983 8.44909C148.694 6.82135 145.994 5.15169 145.984 4.74051C145.975 4.32934 145.293 3.99201 144.469 3.99201C143.644 3.99201 142.969 3.54291 142.969 2.99401C142.969 2.44511 142.069 1.99601 140.969 1.99601C139.87 1.99601 138.97 1.5469 138.97 0.998003C138.97 0.449101 138.07 0 136.97 0C135.871 0 134.971 0.449101 134.971 0.998003ZM581.874 52.3951V66.8662H601.87H621.865V52.3951V37.9241H601.87H581.874V52.3951ZM719.451 39.5029C719.117 40.3712 718.844 50.2514 718.844 61.459V81.8362H699.591C689.003 81.8362 678.894 82.2504 677.127 82.7554C675.362 83.2614 671.99 83.7983 669.636 83.949C667.281 84.0997 664.681 84.5468 663.856 84.942C663.031 85.3382 660.859 86.2175 659.028 86.8961C653.459 88.963 647.926 95.1366 645.392 102.109C644.137 105.562 643.097 109.487 643.08 110.83C643.063 112.174 642.557 117.079 641.955 121.73C640.587 132.303 640.562 142.934 641.882 153.219C642.443 157.597 643.106 162.749 643.356 164.67C644.009 169.71 646.166 176.646 647.078 176.646C647.508 176.646 647.86 177.111 647.86 177.677C647.86 179.286 654.612 185.629 656.325 185.629C657.168 185.629 657.857 186.078 657.857 186.627C657.857 187.175 659.18 187.625 660.798 187.625C662.415 187.625 663.981 188.017 664.277 188.495C664.574 188.974 669.212 189.446 674.584 189.543C679.957 189.639 684.502 190.146 684.685 190.668C684.888 191.244 699.466 191.617 721.82 191.617C754.456 191.617 758.691 191.438 759.229 190.038C760.018 187.983 759.996 43.1147 759.206 40.1696C758.607 37.9391 758.471 37.9241 739.33 37.9241C722.678 37.9241 719.975 38.1387 719.451 39.5029ZM136.97 117.336C136.97 156.76 137.071 157.684 141.398 157.684C142.262 157.684 142.969 158.025 142.969 158.441C142.969 158.858 146.339 160.991 150.459 163.181C154.578 165.373 157.953 167.503 157.958 167.914C157.962 168.325 158.866 168.662 159.965 168.662C161.065 168.662 161.965 169.112 161.965 169.66C161.965 170.209 162.64 170.658 163.465 170.658C164.289 170.658 164.964 171.108 164.964 171.656C164.964 172.205 165.864 172.654 166.964 172.654C168.064 172.654 168.963 173.104 168.963 173.652C168.963 174.201 169.764 174.65 170.742 174.65C171.721 174.65 173.169 175.549 173.962 176.646C174.755 177.744 176.204 178.642 177.183 178.642C178.16 178.642 178.961 178.982 178.961 179.397C178.961 179.812 180.413 180.793 182.188 181.577C185.35 182.974 191.272 186.603 193.666 188.609C194.33 189.165 195.568 189.621 196.415 189.621C197.263 189.621 197.957 190.07 197.957 190.619C197.957 191.167 198.819 191.617 199.874 191.617C200.927 191.617 202.018 192.178 202.297 192.864C202.678 193.803 203.066 193.741 203.865 192.615C205.16 190.786 205.383 130.738 204.095 130.738C203.622 130.738 202.955 128.383 202.614 125.505C202.272 122.627 201.534 120.119 200.974 119.933C200.415 119.746 199.957 118.926 199.957 118.109C199.957 116.517 197.632 113.774 196.278 113.77C195.828 113.768 193.883 112.422 191.958 110.778C190.034 109.135 187.897 107.788 187.209 107.786C186.523 107.785 185.96 107.43 185.96 106.997C185.96 106.564 183.485 104.917 180.461 103.338C177.437 101.758 174.962 100.092 174.962 99.6346C174.962 99.1765 174.062 98.8023 172.962 98.8023C171.863 98.8023 170.963 98.3532 170.963 97.8043C170.963 97.2554 170.063 96.8063 168.963 96.8063C167.864 96.8063 166.964 96.3572 166.964 95.8083C166.964 95.2594 166.289 94.8103 165.464 94.8103C164.639 94.8103 163.964 94.3612 163.964 93.8123C163.964 93.2634 163.065 92.8143 161.965 92.8143C160.865 92.8143 159.965 92.3652 159.965 91.8163C159.965 91.2674 159.258 90.8183 158.395 90.8183C157.53 90.8183 156.196 90.2574 155.429 89.5707C152.223 86.6995 151.006 85.8282 150.205 85.8282C149.74 85.8282 147.231 84.4809 144.63 82.8342C136.425 77.6406 136.97 75.1855 136.97 117.336ZM339.926 158.204V234.573L359.672 234.302L379.418 234.032L379.688 212.824L379.958 191.617H397.934C409.251 191.617 415.91 191.247 415.91 190.619C415.91 190.011 420.409 189.621 427.407 189.621C434.406 189.621 438.905 189.23 438.905 188.623C438.905 188.074 439.987 187.625 441.309 187.625C446.182 187.625 457.901 179.435 457.901 176.029C457.901 175.271 458.351 174.65 458.901 174.65C459.45 174.65 459.9 173.303 459.9 171.656C459.9 170.01 460.35 168.662 460.9 168.662C461.45 168.662 461.9 166.192 461.9 163.173C461.9 160.154 462.35 157.684 462.9 157.684C463.536 157.684 463.899 149.7 463.899 135.728C463.899 121.756 463.536 113.772 462.9 113.772C462.35 113.772 461.9 111.302 461.9 108.283C461.9 105.264 461.45 102.794 460.9 102.794C460.35 102.794 459.9 101.447 459.9 99.8003C459.9 98.1536 459.45 96.8063 458.901 96.8063C458.351 96.8063 457.901 96.0807 457.901 95.1945C457.901 92.8592 451.082 86.9829 446.947 85.7534C434.556 82.0688 430.884 81.8362 385.167 81.8362H339.926V158.204ZM478.896 135.718V189.621H499.892H520.887V145.209V100.798H543.76C562.185 100.798 566.859 100.526 567.798 99.3961C568.53 98.5158 568.855 95.0777 568.671 90.1646L568.377 82.3352L523.637 82.0757L478.896 81.8153V135.718ZM582.541 82.5019C581.708 83.3332 581.65 187.876 582.481 190.038C583.006 191.402 585.719 191.617 602.476 191.617H621.865V136.726V81.8362H602.536C591.905 81.8362 582.907 82.1356 582.541 82.5019ZM807.325 83.1167C804.576 83.6406 800.345 84.7773 797.922 85.6426C792.859 87.451 782.83 96.6685 782.83 99.5138C782.83 100.55 782.393 101.834 781.858 102.368C781.322 102.903 780.717 105.35 780.513 107.807C780.308 110.265 779.83 112.98 779.449 113.841C778.419 116.169 779.405 159.31 780.633 165.668C782.313 174.364 783.001 176.646 783.947 176.646C784.432 176.646 784.83 177.147 784.83 177.759C784.83 179.25 791.876 185.629 793.523 185.629C794.241 185.629 794.828 186.078 794.828 186.627C794.828 187.175 796.402 187.625 798.327 187.625C800.252 187.625 801.826 188.074 801.826 188.623C801.826 189.23 806.325 189.621 813.324 189.621C820.322 189.621 824.821 190.011 824.821 190.619C824.821 191.264 836.95 191.617 859.207 191.617C889.639 191.617 893.662 191.435 894.199 190.038C894.533 189.169 894.806 185.164 894.806 181.138C894.806 177.111 894.533 173.106 894.199 172.237C893.663 170.842 889.768 170.658 860.662 170.658H827.73L825.526 168.358C821.479 164.134 820.822 161.949 820.822 152.708V143.712L857.564 143.698C877.772 143.691 895.319 143.414 896.556 143.084C898.69 142.512 898.805 141.992 898.812 132.867C898.823 116.069 895.692 99.1915 891.956 95.918C890.947 95.0348 889.578 93.2883 888.914 92.0378C888.251 90.7873 887.362 89.9769 886.94 90.2374C886.518 90.4979 885.551 89.8512 884.791 88.7993C883.385 86.8502 877.66 84.8612 867.807 82.8991C861.148 81.5728 814.545 81.7404 807.325 83.1167ZM829.32 99.8003C828.98 100.349 828.022 100.798 827.191 100.798C825.244 100.798 822.822 103.216 822.822 105.16C822.822 105.989 822.372 106.946 821.822 107.285C821.258 107.633 820.822 112.46 820.822 118.345V128.788L838.568 128.516L856.315 128.243L856.499 118.979C856.639 111.939 856.28 108.954 855 106.55C852.741 102.306 851.27 100.798 849.387 100.798C848.523 100.798 847.816 100.349 847.816 99.8003C847.816 99.2095 844.17 98.8023 838.877 98.8023C833.96 98.8023 829.66 99.2514 829.32 99.8003ZM379.918 135.728V170.658H397.459C414.751 170.658 415.036 170.624 417.455 168.208C418.804 166.861 419.909 164.84 419.909 163.717C419.909 162.595 420.359 161.676 420.909 161.676C421.548 161.676 421.909 153.027 421.909 137.724C421.909 122.422 421.548 113.772 420.909 113.772C420.359 113.772 419.909 112.425 419.909 110.778C419.909 109.132 419.459 107.784 418.909 107.784C418.359 107.784 417.903 107.223 417.897 106.537C417.89 105.851 416.322 104.278 414.412 103.044C411.19 100.961 409.818 100.798 395.428 100.798H379.918V135.728ZM702.348 101.79C689.976 102.588 688.546 102.992 687.13 106.091C684.317 112.247 683.852 116.454 683.852 135.728C683.852 155.177 684.29 159.044 687.24 165.668C689.395 170.507 689.927 170.658 704.789 170.658H718.87L718.607 135.978L718.344 101.297L715.845 101.189C714.47 101.131 708.397 101.4 702.348 101.79ZM570.09 217.982C566.27 220.154 562.878 223.796 562.878 225.722C562.878 226.724 562.428 227.545 561.878 227.545C561.328 227.545 560.878 229.103 560.878 231.008C560.878 235.904 565.93 244.511 568.806 244.511C569.395 244.511 569.877 244.96 569.877 245.509C569.877 247.318 582.618 246.705 584.862 244.788C588.674 241.53 586.525 238.21 582.365 240.932C578.141 243.694 573.14 242.778 568.801 238.447C565.889 235.541 566.159 228.17 569.291 225.045C572.706 221.635 576.426 220.96 581.483 222.831C584.921 224.103 585.952 224.161 586.806 223.133C589.929 219.378 575.469 214.921 570.09 217.982ZM601.292 217.89C599.6 218.535 597.116 220.184 595.772 221.557C592.934 224.456 590.033 232.351 591.437 233.359C591.951 233.729 592.527 235.154 592.717 236.527C592.907 237.899 593.469 239.171 593.966 239.354C594.464 239.538 594.871 240.13 594.871 240.673C594.871 241.987 597.454 244.511 598.799 244.511C599.388 244.511 599.87 244.96 599.87 245.509C599.87 246.079 602.869 246.507 606.869 246.507C610.718 246.507 613.867 246.164 613.867 245.745C613.867 245.327 614.852 244.541 616.057 243.999C619.474 242.461 621.711 237.638 621.792 231.63C621.85 227.315 621.355 225.569 619.314 222.897C614.767 216.947 608.409 215.18 601.292 217.89ZM630.114 218.06C629.245 219.044 628.864 223.601 628.864 232.992V246.507H631.863H634.862V237.026C634.862 231.37 635.266 227.545 635.862 227.545C636.412 227.545 636.862 228.233 636.862 229.075C636.862 229.917 638.437 232.177 640.361 234.099C642.286 236.02 643.861 237.938 643.861 238.361C643.861 239.892 650.668 246.507 652.244 246.507C653.658 246.507 653.858 244.652 653.858 231.537C653.858 217.232 653.769 216.567 651.859 216.567C649.993 216.567 649.859 217.232 649.859 226.488C649.859 232.026 649.417 236.681 648.859 237.026C648.31 237.365 647.859 237.055 647.859 236.336C647.858 235.086 645.281 231.565 640.905 226.832C639.781 225.616 638.862 224.156 638.862 223.589C638.862 223.02 638.412 222.555 637.862 222.555C637.312 222.555 636.862 222.046 636.862 221.424C636.862 220.278 633.055 216.535 631.96 216.605C631.632 216.625 630.801 217.28 630.114 218.06ZM668.855 217.565C668.855 218.114 668.067 218.567 667.105 218.571C665.404 218.578 662.856 222.602 662.856 225.282C662.856 227.384 669.569 233.533 671.864 233.533C673.007 233.533 675.136 234.638 676.594 235.989L679.249 238.445L676.898 240.48C674.55 242.513 668.855 243.316 668.855 241.614C668.855 240.262 663.016 238.455 662.315 239.59C661.253 241.304 662.953 244.511 664.923 244.511C665.986 244.511 666.856 244.96 666.856 245.509C666.856 246.064 669.522 246.507 672.854 246.507C676.187 246.507 678.853 246.064 678.853 245.509C678.853 244.96 679.456 244.511 680.192 244.511C681.669 244.511 683.871 240.393 683.819 237.727C683.779 235.708 680.493 231.537 678.943 231.537C678.343 231.537 677.853 231.088 677.853 230.539C677.853 229.99 676.471 229.541 674.783 229.541C671.232 229.541 668.855 227.577 668.855 224.64C668.855 221.912 673.101 220.884 677.627 222.518C680.487 223.55 681.251 223.532 681.96 222.414C683.283 220.33 683.107 220.052 679.319 218.248C675.452 216.408 668.855 215.977 668.855 217.565ZM687.851 219.062C687.851 221.353 688.218 221.557 692.35 221.557H696.849V234.032V246.507H699.349H701.848V234.032V221.557H706.347C710.479 221.557 710.846 221.353 710.846 219.062V216.567H699.349H687.851V219.062ZM717.512 217.232C717.145 217.598 716.845 224.366 716.845 232.271C716.845 246.607 716.851 246.644 719.094 246.327C720.964 246.062 721.396 245.292 721.651 241.766C721.951 237.639 722.054 237.525 725.472 237.525C728.916 237.525 731.841 239.325 731.841 241.446C731.841 242.034 732.291 242.515 732.841 242.515C733.391 242.515 733.841 243.413 733.841 244.511C733.841 246.064 734.508 246.507 736.84 246.507C740.336 246.507 740.636 245.305 737.84 242.515C736.74 241.417 735.841 239.883 735.841 239.104C735.841 238.327 735.279 237.455 734.591 237.166C733.688 236.788 733.813 236.343 735.042 235.565C738.598 233.309 739.84 231.273 739.84 227.695C739.84 220.369 734.618 216.567 724.559 216.567C721.05 216.567 717.877 216.866 717.512 217.232ZM748.088 218.06C746.555 219.797 746.328 237.525 747.838 237.525C748.388 237.525 748.838 238.483 748.838 239.654C748.838 240.825 750.075 242.846 751.587 244.143C756.406 248.281 769.833 247.134 769.833 242.586C769.833 241.998 770.283 241.517 770.833 241.517C771.446 241.517 771.833 236.724 771.833 229.135C771.833 217.245 771.754 216.774 769.833 217.275C767.994 217.755 767.834 218.636 767.834 228.292C767.834 237.794 767.63 238.964 765.681 240.651C762.999 242.974 759.512 243.027 755.74 240.802C752.848 239.097 752.837 239.053 752.837 229.254C752.837 222.061 752.453 219.035 751.408 217.993C749.689 216.275 749.661 216.276 748.088 218.06ZM778.435 218.153C777.472 220.659 778.646 221.557 782.889 221.557H786.83V234.032C786.83 245.841 786.937 246.507 788.829 246.507C790.721 246.507 790.829 245.841 790.829 234.158V221.81L795.85 221.329C801.678 220.77 802.587 220.18 800.847 218.088C798.957 215.815 779.312 215.873 778.435 218.153ZM812.246 217.89C810.554 218.535 808.07 220.184 806.726 221.557C803.888 224.456 800.988 232.351 802.391 233.359C802.905 233.729 803.481 235.154 803.671 236.527C803.861 237.899 804.424 239.171 804.921 239.354C805.419 239.538 805.825 240.158 805.825 240.735C805.825 241.312 807.062 242.846 808.575 244.143C810.878 246.121 812.42 246.505 818.073 246.506C821.906 246.506 824.821 246.076 824.821 245.509C824.821 244.96 825.396 244.511 826.099 244.511C827.749 244.511 830.82 240.932 830.82 239.011C830.82 238.193 831.27 237.525 831.82 237.525C832.371 237.525 832.82 234.943 832.82 231.775C832.82 226.698 832.44 225.601 829.57 222.395C827.783 220.399 825.338 218.27 824.137 217.665C821.378 216.277 816.228 216.374 812.246 217.89ZM841.068 218.06C840.199 219.044 839.818 223.601 839.818 232.992V246.507H842.817C845.706 246.507 845.817 246.34 845.817 242.016V237.525H849.6C852.811 237.525 853.673 238.016 855.293 240.768C856.343 242.552 857.757 244.574 858.436 245.259C860.341 247.183 862.813 246.76 862.813 244.511C862.813 243.413 862.363 242.515 861.813 242.515C861.263 242.515 860.814 241.841 860.814 241.018C860.814 240.194 860.364 239.521 859.814 239.521C858.012 239.521 858.767 235.575 860.814 234.299C861.913 233.613 862.813 232.262 862.813 231.296C862.813 230.331 863.263 229.541 863.813 229.541C864.363 229.541 864.813 228.642 864.813 227.545C864.813 226.447 864.363 225.549 863.813 225.549C863.263 225.549 862.799 224.763 862.781 223.802C862.737 221.402 860.425 218.563 858.513 218.563C857.643 218.563 856.654 218.114 856.315 217.565C855.334 215.98 842.536 216.396 841.068 218.06ZM881.284 217.852C879.515 219.94 876.929 225.931 877.439 226.756C877.708 227.189 877.519 227.545 877.019 227.545C876.519 227.545 874.848 230.576 873.305 234.281C871.762 237.987 870.12 241.445 869.656 241.966C869.192 242.488 868.812 243.722 868.812 244.71C868.812 247.195 873.798 247.245 873.843 244.76C873.915 240.817 876.226 239.521 883.185 239.521C889.806 239.521 889.848 239.539 891.508 243.014C892.832 245.784 893.759 246.507 895.991 246.507C897.539 246.507 898.805 246.058 898.805 245.509C898.805 244.96 898.355 244.511 897.806 244.511C897.256 244.511 896.806 243.831 896.806 243C896.806 242.169 896.406 240.709 895.917 239.756C895.428 238.803 894.19 236.227 893.168 234.032C892.144 231.836 891.063 229.815 890.765 229.541C890.467 229.266 889.607 227.133 888.855 224.8C888.104 222.467 887.11 220.559 886.648 220.559C886.186 220.559 885.808 219.66 885.808 218.563C885.808 216.328 882.955 215.88 881.284 217.852ZM603.247 222.017C598.921 223.863 596.871 227.199 596.871 232.391C596.871 235.95 597.398 237.251 599.62 239.18C602.851 241.987 605.972 242.956 609.184 242.151C612.297 241.371 615.604 238.393 616.024 235.991C616.212 234.913 616.764 233.743 617.251 233.39C619.868 231.495 613.587 222.428 608.868 221.288C607.493 220.957 604.964 221.284 603.247 222.017ZM725.093 221.28L721.844 221.683V227.608V233.533H726.388C729.854 233.533 731.503 232.963 733.336 231.133C735.47 229.004 735.612 228.396 734.599 225.717C733.698 223.336 729.561 219.919 728.545 220.718C728.433 220.806 726.881 221.06 725.093 221.28ZM813.711 222.183C809.542 223.884 807.825 226.951 807.825 232.699C807.825 239.841 815.853 244.705 822.117 241.359C825.108 239.761 826.821 237.919 826.821 236.298C826.821 235.546 827.328 234.424 827.948 233.805C830.57 231.187 824.931 222.509 819.822 221.301C818.448 220.976 815.697 221.373 813.711 222.183ZM849.066 221.351L845.817 221.683V227.608V233.533H850.816C853.565 233.533 855.815 233.084 855.815 232.535C855.815 231.986 856.489 231.537 857.314 231.537C859.48 231.537 859.288 225.266 857.064 223.36C854.768 221.391 853.005 220.948 849.066 221.351ZM881.809 225.549C881.809 226.646 881.411 227.545 880.926 227.545C880.44 227.545 879.823 228.555 879.554 229.79C879.287 231.026 878.736 232.821 878.332 233.782C877.687 235.313 878.226 235.529 882.702 235.529C887.141 235.529 887.808 235.268 887.808 233.533C887.808 232.435 887.358 231.537 886.808 231.537C886.258 231.537 885.808 230.638 885.808 229.541C885.808 228.443 885.358 227.545 884.808 227.545C884.258 227.545 883.809 226.646 883.809 225.549C883.809 224.451 883.359 223.553 882.809 223.553C882.259 223.553 881.809 224.451 881.809 225.549Z" fill="white"/>
</g>
<defs>
<clipPath id="clip0_33_16">
<rect width="898.805" height="314.371" fill="white"/>
</clipPath>
</defs>
</svg>
