<svg width="200" height="40" viewBox="0 0 200 40" fill="none" xmlns="http://www.w3.org/2000/svg">
<rect x="1" y="1" width="198" height="38" rx="19" fill="#1E1E1E"/>
<rect x="1" y="1" width="198" height="38" rx="19" stroke="#F8F8F8" stroke-width="2"/>
<path d="M27.74 24L27.068 21.984H22.604L21.932 24H19.548L23.468 12.8H26.204L30.14 24H27.74ZM23.308 19.92H26.38L24.844 15.344L23.308 19.92ZM34.7208 24.224C33.5154 24.224 32.5074 23.8187 31.6968 23.008C30.8968 22.1973 30.4967 21.1947 30.4967 20C30.4967 18.8053 30.8968 17.8027 31.6968 16.992C32.5074 16.1813 33.5154 15.776 34.7208 15.776C35.4994 15.776 36.2088 15.9627 36.8488 16.336C37.4888 16.7093 37.9741 17.2107 38.3048 17.84L36.5288 18.88C36.3688 18.5493 36.1234 18.288 35.7928 18.096C35.4728 17.904 35.1101 17.808 34.7048 17.808C34.0861 17.808 33.5741 18.016 33.1688 18.432C32.7634 18.8373 32.5608 19.36 32.5608 20C32.5608 20.6293 32.7634 21.152 33.1688 21.568C33.5741 21.9733 34.0861 22.176 34.7048 22.176C35.1208 22.176 35.4888 22.0853 35.8088 21.904C36.1394 21.712 36.3848 21.4507 36.5448 21.12L38.3368 22.144C37.9848 22.7733 37.4888 23.28 36.8488 23.664C36.2088 24.0373 35.4994 24.224 34.7208 24.224ZM41.0474 20.848C41.3247 21.8507 42.0767 22.352 43.3034 22.352C44.0927 22.352 44.69 22.0853 45.0954 21.552L46.7594 22.512C45.97 23.6533 44.8074 24.224 43.2714 24.224C41.9487 24.224 40.8874 23.824 40.0874 23.024C39.2874 22.224 38.8874 21.216 38.8874 20C38.8874 18.7947 39.282 17.792 40.0714 16.992C40.8607 16.1813 41.874 15.776 43.1114 15.776C44.2847 15.776 45.25 16.1813 46.0074 16.992C46.7754 17.8027 47.1594 18.8053 47.1594 20C47.1594 20.2667 47.1327 20.5493 47.0794 20.848H41.0474ZM41.0154 19.248H45.0954C44.978 18.704 44.7327 18.2987 44.3594 18.032C43.9967 17.7653 43.5807 17.632 43.1114 17.632C42.5567 17.632 42.098 17.776 41.7354 18.064C41.3727 18.3413 41.1327 18.736 41.0154 19.248ZM50.1918 18.272C50.1918 18.4853 50.3304 18.6613 50.6078 18.8C50.8958 18.928 51.2424 19.0453 51.6478 19.152C52.0531 19.248 52.4584 19.376 52.8638 19.536C53.2691 19.6853 53.6104 19.9413 53.8878 20.304C54.1758 20.6667 54.3198 21.12 54.3198 21.664C54.3198 22.4853 54.0104 23.12 53.3918 23.568C52.7838 24.0053 52.0211 24.224 51.1038 24.224C49.4611 24.224 48.3411 23.5893 47.7438 22.32L49.5358 21.312C49.7704 22.0053 50.2931 22.352 51.1038 22.352C51.8398 22.352 52.2078 22.1227 52.2078 21.664C52.2078 21.4507 52.0638 21.28 51.7758 21.152C51.4984 21.0133 51.1571 20.8907 50.7518 20.784C50.3464 20.6773 49.9411 20.544 49.5358 20.384C49.1304 20.224 48.7838 19.9733 48.4958 19.632C48.2184 19.28 48.0798 18.8427 48.0798 18.32C48.0798 17.5307 48.3678 16.912 48.9438 16.464C49.5304 16.0053 50.2558 15.776 51.1198 15.776C51.7704 15.776 52.3624 15.9253 52.8958 16.224C53.4291 16.512 53.8504 16.928 54.1598 17.472L52.3998 18.432C52.1438 17.888 51.7171 17.616 51.1198 17.616C50.8531 17.616 50.6291 17.6747 50.4478 17.792C50.2771 17.9093 50.1918 18.0693 50.1918 18.272ZM57.1293 18.272C57.1293 18.4853 57.2679 18.6613 57.5453 18.8C57.8333 18.928 58.1799 19.0453 58.5853 19.152C58.9906 19.248 59.3959 19.376 59.8013 19.536C60.2066 19.6853 60.5479 19.9413 60.8253 20.304C61.1133 20.6667 61.2573 21.12 61.2573 21.664C61.2573 22.4853 60.9479 23.12 60.3293 23.568C59.7213 24.0053 58.9586 24.224 58.0413 24.224C56.3986 24.224 55.2786 23.5893 54.6813 22.32L56.4733 21.312C56.7079 22.0053 57.2306 22.352 58.0413 22.352C58.7773 22.352 59.1453 22.1227 59.1453 21.664C59.1453 21.4507 59.0013 21.28 58.7133 21.152C58.4359 21.0133 58.0946 20.8907 57.6893 20.784C57.2839 20.6773 56.8786 20.544 56.4733 20.384C56.0679 20.224 55.7213 19.9733 55.4333 19.632C55.1559 19.28 55.0173 18.8427 55.0173 18.32C55.0173 17.5307 55.3053 16.912 55.8813 16.464C56.4679 16.0053 57.1933 15.776 58.0573 15.776C58.7079 15.776 59.2999 15.9253 59.8333 16.224C60.3666 16.512 60.7879 16.928 61.0973 17.472L59.3373 18.432C59.0813 17.888 58.6546 17.616 58.0573 17.616C57.7906 17.616 57.5666 17.6747 57.3853 17.792C57.2146 17.9093 57.1293 18.0693 57.1293 18.272ZM64.2193 20.848C64.4966 21.8507 65.2486 22.352 66.4753 22.352C67.2646 22.352 67.8619 22.0853 68.2673 21.552L69.9313 22.512C69.1419 23.6533 67.9793 24.224 66.4433 24.224C65.1206 24.224 64.0593 23.824 63.2593 23.024C62.4593 22.224 62.0592 21.216 62.0592 20C62.0592 18.7947 62.4539 17.792 63.2433 16.992C64.0326 16.1813 65.0459 15.776 66.2833 15.776C67.4566 15.776 68.4219 16.1813 69.1793 16.992C69.9473 17.8027 70.3313 18.8053 70.3313 20C70.3313 20.2667 70.3046 20.5493 70.2513 20.848H64.2193ZM64.1873 19.248H68.2673C68.1499 18.704 67.9046 18.2987 67.5313 18.032C67.1686 17.7653 66.7526 17.632 66.2833 17.632C65.7286 17.632 65.2699 17.776 64.9073 18.064C64.5446 18.3413 64.3046 18.736 64.1873 19.248ZM80.2201 15.776C81.0948 15.776 81.8148 16.0693 82.3801 16.656C82.9561 17.2427 83.2441 18.0533 83.2441 19.088V24H81.1801V19.344C81.1801 18.8107 81.0361 18.4053 80.7481 18.128C80.4601 17.84 80.0761 17.696 79.5961 17.696C79.0628 17.696 78.6361 17.8613 78.3161 18.192C77.9961 18.5227 77.8361 19.0187 77.8361 19.68V24H75.7721V16H77.8361V16.896C78.3375 16.1493 79.1321 15.776 80.2201 15.776ZM91.8225 23.008C91.0012 23.8187 89.9985 24.224 88.8145 24.224C87.6305 24.224 86.6278 23.8187 85.8065 23.008C84.9958 22.1867 84.5905 21.184 84.5905 20C84.5905 18.816 84.9958 17.8187 85.8065 17.008C86.6278 16.1867 87.6305 15.776 88.8145 15.776C89.9985 15.776 91.0012 16.1867 91.8225 17.008C92.6438 17.8187 93.0545 18.816 93.0545 20C93.0545 21.184 92.6438 22.1867 91.8225 23.008ZM87.2625 21.584C87.6785 22 88.1958 22.208 88.8145 22.208C89.4332 22.208 89.9505 22 90.3665 21.584C90.7825 21.168 90.9905 20.64 90.9905 20C90.9905 19.36 90.7825 18.832 90.3665 18.416C89.9505 18 89.4332 17.792 88.8145 17.792C88.1958 17.792 87.6785 18 87.2625 18.416C86.8572 18.832 86.6545 19.36 86.6545 20C86.6545 20.64 86.8572 21.168 87.2625 21.584ZM96.2386 18.272C96.2386 18.4853 96.3773 18.6613 96.6546 18.8C96.9426 18.928 97.2893 19.0453 97.6946 19.152C98.1 19.248 98.5053 19.376 98.9106 19.536C99.316 19.6853 99.6573 19.9413 99.9346 20.304C100.223 20.6667 100.367 21.12 100.367 21.664C100.367 22.4853 100.057 23.12 99.4386 23.568C98.8306 24.0053 98.068 24.224 97.1506 24.224C95.508 24.224 94.388 23.5893 93.7906 22.32L95.5826 21.312C95.8173 22.0053 96.34 22.352 97.1506 22.352C97.8866 22.352 98.2546 22.1227 98.2546 21.664C98.2546 21.4507 98.1106 21.28 97.8226 21.152C97.5453 21.0133 97.204 20.8907 96.7986 20.784C96.3933 20.6773 95.988 20.544 95.5826 20.384C95.1773 20.224 94.8306 19.9733 94.5426 19.632C94.2653 19.28 94.1266 18.8427 94.1266 18.32C94.1266 17.5307 94.4146 16.912 94.9906 16.464C95.5773 16.0053 96.3026 15.776 97.1666 15.776C97.8173 15.776 98.4093 15.9253 98.9426 16.224C99.476 16.512 99.8973 16.928 100.207 17.472L98.4466 18.432C98.1906 17.888 97.764 17.616 97.1666 17.616C96.9 17.616 96.676 17.6747 96.4946 17.792C96.324 17.9093 96.2386 18.0693 96.2386 18.272ZM103.176 18.272C103.176 18.4853 103.315 18.6613 103.592 18.8C103.88 18.928 104.227 19.0453 104.632 19.152C105.037 19.248 105.443 19.376 105.848 19.536C106.253 19.6853 106.595 19.9413 106.872 20.304C107.16 20.6667 107.304 21.12 107.304 21.664C107.304 22.4853 106.995 23.12 106.376 23.568C105.768 24.0053 105.005 24.224 104.088 24.224C102.445 24.224 101.325 23.5893 100.728 22.32L102.52 21.312C102.755 22.0053 103.277 22.352 104.088 22.352C104.824 22.352 105.192 22.1227 105.192 21.664C105.192 21.4507 105.048 21.28 104.76 21.152C104.483 21.0133 104.141 20.8907 103.736 20.784C103.331 20.6773 102.925 20.544 102.52 20.384C102.115 20.224 101.768 19.9733 101.48 19.632C101.203 19.28 101.064 18.8427 101.064 18.32C101.064 17.5307 101.352 16.912 101.928 16.464C102.515 16.0053 103.24 15.776 104.104 15.776C104.755 15.776 105.347 15.9253 105.88 16.224C106.413 16.512 106.835 16.928 107.144 17.472L105.384 18.432C105.128 17.888 104.701 17.616 104.104 17.616C103.837 17.616 103.613 17.6747 103.432 17.792C103.261 17.9093 103.176 18.0693 103.176 18.272ZM115.338 23.008C114.517 23.8187 113.514 24.224 112.33 24.224C111.146 24.224 110.143 23.8187 109.322 23.008C108.511 22.1867 108.106 21.184 108.106 20C108.106 18.816 108.511 17.8187 109.322 17.008C110.143 16.1867 111.146 15.776 112.33 15.776C113.514 15.776 114.517 16.1867 115.338 17.008C116.159 17.8187 116.57 18.816 116.57 20C116.57 21.184 116.159 22.1867 115.338 23.008ZM110.778 21.584C111.194 22 111.711 22.208 112.33 22.208C112.949 22.208 113.466 22 113.882 21.584C114.298 21.168 114.506 20.64 114.506 20C114.506 19.36 114.298 18.832 113.882 18.416C113.466 18 112.949 17.792 112.33 17.792C111.711 17.792 111.194 18 110.778 18.416C110.373 18.832 110.17 19.36 110.17 20C110.17 20.64 110.373 21.168 110.778 21.584ZM123.926 18.272C123.926 18.4853 124.065 18.6613 124.342 18.8C124.63 18.928 124.977 19.0453 125.382 19.152C125.787 19.248 126.193 19.376 126.598 19.536C127.003 19.6853 127.345 19.9413 127.622 20.304C127.91 20.6667 128.054 21.12 128.054 21.664C128.054 22.4853 127.745 23.12 127.126 23.568C126.518 24.0053 125.755 24.224 124.838 24.224C123.195 24.224 122.075 23.5893 121.478 22.32L123.27 21.312C123.505 22.0053 124.027 22.352 124.838 22.352C125.574 22.352 125.942 22.1227 125.942 21.664C125.942 21.4507 125.798 21.28 125.51 21.152C125.233 21.0133 124.891 20.8907 124.486 20.784C124.081 20.6773 123.675 20.544 123.27 20.384C122.865 20.224 122.518 19.9733 122.23 19.632C121.953 19.28 121.814 18.8427 121.814 18.32C121.814 17.5307 122.102 16.912 122.678 16.464C123.265 16.0053 123.99 15.776 124.854 15.776C125.505 15.776 126.097 15.9253 126.63 16.224C127.163 16.512 127.585 16.928 127.894 17.472L126.134 18.432C125.878 17.888 125.451 17.616 124.854 17.616C124.587 17.616 124.363 17.6747 124.182 17.792C124.011 17.9093 123.926 18.0693 123.926 18.272ZM130.406 15.04C130.064 15.04 129.766 14.9173 129.51 14.672C129.264 14.416 129.142 14.1173 129.142 13.776C129.142 13.4347 129.264 13.136 129.51 12.88C129.766 12.624 130.064 12.496 130.406 12.496C130.758 12.496 131.056 12.624 131.302 12.88C131.558 13.136 131.686 13.4347 131.686 13.776C131.686 14.1173 131.558 14.416 131.302 14.672C131.056 14.9173 130.758 15.04 130.406 15.04ZM129.382 24V16H131.446V24H129.382ZM137.911 17.984H136.103V21.312C136.103 21.5893 136.172 21.792 136.311 21.92C136.449 22.048 136.652 22.1227 136.919 22.144C137.185 22.1547 137.516 22.1493 137.911 22.128V24C136.492 24.16 135.489 24.0267 134.903 23.6C134.327 23.1733 134.039 22.4107 134.039 21.312V17.984H132.647V16H134.039V14.384L136.103 13.76V16H137.911V17.984ZM140.86 20.848C141.137 21.8507 141.889 22.352 143.116 22.352C143.905 22.352 144.503 22.0853 144.908 21.552L146.572 22.512C145.783 23.6533 144.62 24.224 143.084 24.224C141.761 24.224 140.7 23.824 139.9 23.024C139.1 22.224 138.7 21.216 138.7 20C138.7 18.7947 139.095 17.792 139.884 16.992C140.673 16.1813 141.687 15.776 142.924 15.776C144.097 15.776 145.063 16.1813 145.82 16.992C146.588 17.8027 146.972 18.8053 146.972 20C146.972 20.2667 146.945 20.5493 146.892 20.848H140.86ZM140.828 19.248H144.908C144.791 18.704 144.545 18.2987 144.172 18.032C143.809 17.7653 143.393 17.632 142.924 17.632C142.369 17.632 141.911 17.776 141.548 18.064C141.185 18.3413 140.945 18.736 140.828 19.248ZM148.797 20.24L148.365 16V12.8H150.845V16L150.429 20.24H148.797ZM150.573 23.808C150.306 24.0747 149.986 24.208 149.613 24.208C149.239 24.208 148.919 24.0747 148.653 23.808C148.386 23.5413 148.253 23.2213 148.253 22.848C148.253 22.4747 148.386 22.1547 148.653 21.888C148.919 21.6213 149.239 21.488 149.613 21.488C149.986 21.488 150.306 21.6213 150.573 21.888C150.839 22.1547 150.973 22.4747 150.973 22.848C150.973 23.2213 150.839 23.5413 150.573 23.808Z" fill="#F8F8F8"/>
<path d="M165.5 25L175.5 15M175.5 15H168.833M175.5 15V21.6667" stroke="#F8F8F8" stroke-width="1.76185" stroke-linecap="round" stroke-linejoin="round"/>
</svg>
